<?xml version="1.0" encoding="utf-8"?>
<!-- Generator: Adobe Illustrator 16.0.0, SVG Export Plug-In . SVG Version: 6.00 Build 0)  -->
<!DOCTYPE svg PUBLIC "-//W3C//DTD SVG 1.1//EN" "http://www.w3.org/Graphics/SVG/1.1/DTD/svg11.dtd">
<svg version="1.1" id="Layer_1" xmlns="http://www.w3.org/2000/svg" xmlns:xlink="http://www.w3.org/1999/xlink" x="0px" y="0px"
	 width="300px" height="300px" viewBox="0 0 300 300" enable-background="new 0 0 300 300" xml:space="preserve">
<circle fill="#FFFFFF" stroke="#272634" stroke-width="4.8349" stroke-miterlimit="10" cx="151.568" cy="150.899" r="143.432"/>
<path fill-rule="evenodd" clip-rule="evenodd" fill="#272634" d="M101.251,128.64c8.732,3.221,17.466,6.44,26.199,9.662
	c11.341,4.186,22.56,8.754,34.063,12.431c8.196,2.618,16.768,4.072,25.186,5.984c5.896,1.339,11.806,2.613,17.726,3.841
	c2.441,0.509,4.189,1.768,5.511,3.896c11.34,18.292,22.718,36.563,34.111,54.819c1.39,2.227,1.902,4.485,0.571,6.842
	c-1.303,2.305-3.384,3.268-6.047,3.284c-24.133,0.145-48.266,0.294-72.399,0.555c-2.335,0.025-3.546-0.617-4.812-2.688
	c-14.503-23.756-29.156-47.416-43.77-71.103c-5.578-9.039-11.154-18.08-16.732-27.119
	C100.989,128.909,101.121,128.774,101.251,128.64z"/>
<path fill-rule="evenodd" clip-rule="evenodd" fill="#272634" d="M226.189,134.935c7.578,7.751,14.893,15.231,22.205,22.707
	c1.149,1.176,2.37,2.285,3.454,3.519c1.636,1.866,1.9,4.075,1,6.313c-0.955,2.368-2.822,3.726-5.407,3.785
	c-3.599,0.078-7.206,0.021-11.565,0.021c1.115,1.156,1.726,1.81,2.361,2.439c10.378,10.302,20.74,20.62,31.159,30.883
	c2.241,2.21,3.846,4.529,2.512,7.792c-1.363,3.321-4.14,4.066-7.416,3.999c-4.066-0.084-8.137-0.114-12.197,0.028
	c-1.861,0.064-2.914-0.511-3.914-2.133c-10.955-17.726-22.029-35.375-32.999-53.092c-2.285-3.689-5.377-5.878-9.626-6.783
	c-12.25-2.61-24.483-5.309-36.698-8.09c-3.519-0.802-6.946-2.004-11.037-3.207c3.021-2.793,5.626-5.203,8.628-7.98
	c-1.26-0.095-1.979-0.205-2.697-0.194c-2.905,0.042-5.05-1.202-6.145-3.887c-1.104-2.71-0.285-5.059,1.758-7.068
	c3.268-3.217,6.509-6.461,9.765-9.69c7.313-7.25,14.623-14.503,21.944-21.745c3.69-3.651,7.088-3.635,10.767,0.019
	c10.501,10.424,20.994,20.855,31.507,31.269c1.838,1.821,2.916,3.861,2.181,6.51c-0.768,2.75-2.989,4.47-5.908,4.579
	C228.646,134.972,227.465,134.935,226.189,134.935z"/>
<path fill-rule="evenodd" clip-rule="evenodd" fill="#272634" d="M88.973,137.892c-0.434,30.473-0.868,60.947-1.306,91.812
	c-1.239,0-2.241,0.005-3.244,0c-13.572-0.08-27.144-0.19-40.715-0.219c-2.752-0.007-4.938-0.874-6.27-3.319
	c-1.295-2.376-0.73-4.609,0.645-6.834c16.583-26.814,33.133-53.651,49.693-80.479c0.221-0.358,0.474-0.698,0.711-1.048
	C88.649,137.834,88.811,137.864,88.973,137.892z"/>
<path fill-rule="evenodd" clip-rule="evenodd" fill="#272634" d="M150.601,229.721c-19.045,0-37.608,0-56.536,0
	c0.412-29.635,0.821-59.062,1.23-88.485c0.189-0.072,0.377-0.144,0.565-0.217C114.047,170.487,132.233,199.956,150.601,229.721z"/>
<g>
	<path fill-rule="evenodd" clip-rule="evenodd" fill="#0071BC" d="M78.483,61.565c1.631,0.189,3.228,0.179,4.69,0.616
		c0.897,0.268,1.983,1.101,2.233,1.912c0.163,0.529-0.893,1.64-1.626,2.198c-1.501,1.141-3.328,1.888-4.709,3.141
		c-6.549,5.947-7.11,15.62-1.423,22.402c5.466,6.519,15.269,7.637,22.24,2.601c1.217-0.879,2.306-2.896,4.178-1.424
		c1.816,1.429,0.504,3.24-0.036,4.755c-4.411,12.373-17.143,19.602-30.428,17.364c-12.52-2.109-22.117-13.438-22.264-26.285
		c-0.148-12.918,9.208-24.229,22.079-26.639C75.105,61.888,76.832,61.769,78.483,61.565z"/>
	<path fill-rule="evenodd" clip-rule="evenodd" fill="#272634" d="M78.483,61.565c1.631,0.189,3.228,0.179,4.69,0.616
		c0.897,0.268,1.983,1.101,2.233,1.912c0.163,0.529-0.893,1.64-1.626,2.198c-1.501,1.141-3.328,1.888-4.709,3.141
		c-6.549,5.947-7.11,15.62-1.423,22.402c5.466,6.519,15.269,7.637,22.24,2.601c1.217-0.879,2.306-2.896,4.178-1.424
		c1.816,1.429,0.504,3.24-0.036,4.755c-4.411,12.373-17.143,19.602-30.428,17.364c-12.52-2.109-22.117-13.438-22.264-26.285
		c-0.148-12.918,9.208-24.229,22.079-26.639C75.105,61.888,76.832,61.769,78.483,61.565z"/>
</g>
</svg>
