<?xml version="1.0" encoding="utf-8"?>
<!-- Generator: Adobe Illustrator 16.0.0, SVG Export Plug-In . SVG Version: 6.00 Build 0)  -->
<!DOCTYPE svg PUBLIC "-//W3C//DTD SVG 1.1//EN" "http://www.w3.org/Graphics/SVG/1.1/DTD/svg11.dtd">
<svg version="1.1" id="Layer_1" xmlns="http://www.w3.org/2000/svg" xmlns:xlink="http://www.w3.org/1999/xlink" x="0px" y="0px"
	 width="300px" height="300px" viewBox="0 0 300 300" enable-background="new 0 0 300 300" xml:space="preserve">
<circle fill="#FFFFFF" stroke="#272634" stroke-width="4.7836" stroke-miterlimit="10" cx="155.331" cy="150.582" r="141.912"/>
<g>
	<path fill-rule="evenodd" clip-rule="evenodd" fill="#272634" d="M63.33,125.87c3.242-1.805,6.416-3.239,9.202-5.216
		c2.721-1.924,5.046-4.406,7.709-6.788c2.194,3.056,4.462,6.219,6.729,9.378c3.875,5.405,8.276,10.342,13.779,14.107
		c2.242,1.535,4.785,2.8,7.37,3.624c3.736,1.189,6.901-0.21,8.236-3.878c1.106-3.032,1.806-6.377,1.864-9.597
		c0.213-11.64,1.651-22.985,6.953-33.52c8.536-16.951,22.483-26.93,41.007-29.767c24.801-3.791,46.522,3.322,63.931,21.469
		c13.213,13.78,17.905,30.863,15.847,49.697c-2.164,19.773-11.437,35.555-27.621,47.191c-1.8,1.295-3.706,2.521-5.721,3.422
		c-1.854,0.832-2.277,1.971-2.255,3.896c0.11,9.216,0.057,18.438,0.048,27.662c-0.005,7.863-5.324,13.22-13.115,13.22
		c-21.901,0-43.799,0.009-65.695-0.012c-8.167-0.005-13.295-5.252-13.278-13.486c0.005-4.224,0.097-8.453-0.053-12.674
		c-0.047-1.274-0.486-2.733-1.222-3.762c-17.46-24.426-34.987-48.811-52.505-73.204C64.1,127.021,63.687,126.388,63.33,125.87z
		 M210.408,165.292c0.939-0.767,1.431-1.122,1.868-1.533c8.922-8.45,14.364-18.675,15.443-31c1.286-14.641-2.823-27.456-14-37.307
		c-12.768-11.252-27.924-15.653-44.678-12.943c-15.928,2.579-26.07,12.144-30.331,27.788c-0.128,0.47-0.092,0.984-0.148,1.648
		c0.787,0,1.393,0,1.998,0c18.736-0.003,37.473,0.002,56.214-0.013c8.691,0,13.62,4.843,13.629,13.488
		c0.014,12.363,0.005,24.727,0.005,37.087C210.408,163.251,210.408,163.995,210.408,165.292z M174.211,187.986
		c7.274,2.396,12.016,1.089,14.4-3.971c2.207-4.68,0.387-9.547-4.857-12.99c5.453-4.064,7.083-8.967,4.51-13.549
		c-2.721-4.821-7.419-5.874-14.432-3.221c-0.709-6.725-4.035-10.42-9.503-10.553c-5.489-0.128-8.989,3.656-9.878,10.685
		c-6.385-2.446-10.939-1.582-13.694,2.672c-1.625,2.51-2.426,5.396-1.132,8.1c1.153,2.408,3.147,4.416,4.771,6.596
		c-4.527,2.986-6.492,8.077-4.083,12.496c1.001,1.83,2.78,3.499,4.602,4.557c3.325,1.932,6.77,0.99,9.999-0.95
		c0.369,6.639,3.919,10.636,9.316,10.74C169.915,198.706,173.497,194.9,174.211,187.986z"/>
	<path fill-rule="evenodd" clip-rule="evenodd" fill="#272634" d="M56.444,123.242c-5.699-0.048-11.27-2.487-15.528-7.792
		c-1.301-1.616-1.445-3.205-0.374-4.979c7.483-12.411,18.296-20.092,32.505-22.989c2.024-0.418,3.282,0.562,4.318,2.151
		c4.966,7.619,3.96,18.184-2.465,25.524C70.427,120.274,64.259,123.128,56.444,123.242z"/>
	<path fill-rule="evenodd" clip-rule="evenodd" fill="#272634" d="M164.843,181.408c-5.471,0.023-9.868-4.239-9.965-9.66
		c-0.096-5.463,4.353-10.039,9.816-10.103c5.45-0.063,9.951,4.44,9.951,9.952C174.642,177.016,170.275,181.389,164.843,181.408z"/>
</g>
</svg>
