<?xml version="1.0" encoding="utf-8"?>
<!-- Generator: Adobe Illustrator 16.0.0, SVG Export Plug-In . SVG Version: 6.00 Build 0)  -->
<!DOCTYPE svg PUBLIC "-//W3C//DTD SVG 1.1//EN" "http://www.w3.org/Graphics/SVG/1.1/DTD/svg11.dtd">
<svg version="1.1" id="Layer_1" xmlns="http://www.w3.org/2000/svg" xmlns:xlink="http://www.w3.org/1999/xlink" x="0px" y="0px"
	 width="300px" height="300px" viewBox="0 0 300 300" enable-background="new 0 0 300 300" xml:space="preserve">
<circle fill="#FFFFFF" stroke="#272634" stroke-width="4.9248" stroke-miterlimit="10" cx="150.439" cy="150.771" r="146.102"/>
<g>
	<circle fill="#272634" cx="91.835" cy="77.504" r="17.746"/>
	<path fill="#272634" d="M95.779,157.032c0,0-19.717-6.572-20.375-25.633c-0.108-3.128,1.495-6.202,4.449-9.166
		c9.111,19.751,23.672,30.659,32.919,35.929c-4.365,5.016-8.121,10.529-11.078,16.615c-34.178,70.326,11.831,88.729,11.831,88.729
		s-23.661-29.576,21.032-82.814c44.693-53.237,139.997-71.641,139.997-71.641s-90.008-2.975-142.867,32.641
		c-16.49-9.07-22.019-25.251-23.844-34.182c22.83-7.749,54.538-13.174,84.553-14.233c0,0-53.237-13.803-113.047,14.459
		C19.538,136,77.376,157.032,95.779,157.032z"/>
</g>
</svg>
