<svg xmlns="http://www.w3.org/2000/svg" width="300" height="300"><circle cx="150.554" cy="150.886" r="144.446" fill="#fff" stroke="#272634" stroke-width="4.869" stroke-miterlimit="10"/><path fill="#272634" fill-rule="evenodd" d="M198.9 195c-32.9 0-65.57 0-98.45 0 0-.7 0-1.33 0-1.96.1-22.95.22-45.9.33-68.87 0-3.7-.2-3.98-3.83-4.84C83.03 116 73.15 103.1 73.3 88.4c.13-14.2 10.4-26.9 24.34-29.82 10.77-2.26 20.3.38 28.45 7.8.87.8 1.73 1.62 2.72 2.54 5.14-9.43 12.52-15.2 23.52-15.16 10.92.04 18.26 5.78 23.26 15.22 11.66-11.1 24.38-14.6 38.76-5.7 10.73 6.62 14.94 16.4 13 28.74-2.54 16-13.3 23-28.46 25.14 0 13 0 25.97 0 38.93 0 12.9 0 25.82 0 38.9zM150.04 203.47c14.94 0 29.9 0 44.83.02 1.57 0 3.18.05 4.7.38 4.87 1.05 7.52 4.7 7.26 9.78-.2 4.3-3.43 7.58-8.12 8.2-1.18.16-2.38.23-3.58.23-30.54 0-61.08 0-91.62-.02-1.46 0-2.96-.1-4.37-.47-3.85-.98-6.4-4.35-6.78-8.67-.3-3.45 1.66-6.65 5.38-8.15 1.82-.73 3.88-1.2 5.84-1.2 15.5-.1 30.98-.06 46.47-.06 0-.02 0-.03 0-.05z" clip-rule="evenodd"/></svg>