<svg xmlns="http://www.w3.org/2000/svg" width="300" height="300"><circle cx="151.568" cy="150.899" r="143.432" fill="#fff" stroke="#272634" stroke-width="4.835" stroke-miterlimit="10"/><path fill="#272634" fill-rule="evenodd" d="M101.25 128.64c8.73 3.22 17.47 6.44 26.2 9.66 11.34 4.2 22.56 8.76 34.06 12.43 8.2 2.62 16.78 4.08 25.2 6 5.9 1.33 11.8 2.6 17.73 3.83 2.44.5 4.18 1.77 5.5 3.9 11.35 18.3 22.72 36.56 34.12 54.8 1.4 2.24 1.9 4.5.57 6.86-1.3 2.3-3.4 3.26-6.05 3.28-24.13.14-48.26.3-72.4.55-2.33.03-3.54-.6-4.8-2.68-14.5-23.76-29.17-47.42-43.78-71.1-5.6-9.05-11.16-18.1-16.74-27.13.13-.13.26-.27.4-.4zM226.2 134.94c7.57 7.75 14.88 15.23 22.2 22.7 1.14 1.18 2.36 2.3 3.45 3.52 1.63 1.87 1.9 4.08 1 6.3-.96 2.38-2.82 3.74-5.4 3.8-3.6.08-7.2.02-11.57.02 1.1 1.16 1.72 1.8 2.36 2.44 10.37 10.3 20.74 20.62 31.16 30.88 2.24 2.2 3.84 4.53 2.5 7.8-1.35 3.3-4.13 4.06-7.4 4-4.07-.1-8.14-.12-12.2.02-1.87.06-2.92-.5-3.92-2.13-10.95-17.74-22.03-35.4-33-53.1-2.28-3.7-5.37-5.88-9.62-6.8-12.25-2.6-24.5-5.3-36.7-8.08-3.52-.8-6.95-2-11.04-3.2 3.02-2.8 5.63-5.2 8.63-7.98-1.26-.1-1.98-.2-2.7-.2-2.9.04-5.05-1.2-6.14-3.88-1.1-2.7-.28-5.06 1.76-7.07 3.27-3.23 6.5-6.47 9.77-9.7 7.3-7.25 14.62-14.5 21.94-21.75 3.7-3.65 7.1-3.63 10.77.02 10.5 10.43 21 20.86 31.5 31.27 1.85 1.82 2.92 3.86 2.2 6.5-.78 2.76-3 4.48-5.92 4.6-1.17.03-2.35 0-3.63 0zM88.97 137.9c-.43 30.46-.86 60.94-1.3 91.8-1.24 0-2.24 0-3.25 0-13.57-.08-27.14-.2-40.7-.2-2.76-.02-4.95-.9-6.28-3.33-1.3-2.38-.73-4.6.64-6.84 16.6-26.8 33.14-53.65 49.7-80.48.22-.35.47-.7.7-1.04.17.03.33.06.5.1zM150.6 229.72c-19.04 0-37.6 0-56.53 0 .4-29.63.82-59.06 1.23-88.48.18-.08.37-.15.56-.22 18.2 29.47 36.37 58.94 54.74 88.7z" clip-rule="evenodd"/><g fill-rule="evenodd" clip-rule="evenodd"><path fill="#0071BC" d="M78.48 61.56c1.63.2 3.23.18 4.7.62.9.27 1.98 1.1 2.23 1.9.17.54-.9 1.65-1.62 2.2-1.5 1.15-3.33 1.9-4.7 3.15-6.56 5.95-7.12 15.62-1.43 22.4 5.46 6.52 15.27 7.64 22.24 2.6 1.2-.87 2.3-2.9 4.17-1.42 1.8 1.44.5 3.25-.04 4.77-4.4 12.37-17.14 19.6-30.43 17.36-12.52-2.1-22.12-13.44-22.26-26.29-.15-12.9 9.2-24.22 22.08-26.63 1.7-.3 3.4-.43 5.06-.64z"/><path fill="#272634" d="M78.48 61.56c1.63.2 3.23.18 4.7.62.9.27 1.98 1.1 2.23 1.9.17.54-.9 1.65-1.62 2.2-1.5 1.15-3.33 1.9-4.7 3.15-6.56 5.95-7.12 15.62-1.43 22.4 5.46 6.52 15.27 7.64 22.24 2.6 1.2-.87 2.3-2.9 4.17-1.42 1.8 1.44.5 3.25-.04 4.77-4.4 12.37-17.14 19.6-30.43 17.36-12.52-2.1-22.12-13.44-22.26-26.29-.15-12.9 9.2-24.22 22.08-26.63 1.7-.3 3.4-.43 5.06-.64z"/></g></svg>