<svg xmlns="http://www.w3.org/2000/svg" width="300" height="300"><circle cx="155.331" cy="150.582" r="141.912" fill="#fff" stroke="#272634" stroke-width="4.784" stroke-miterlimit="10"/><g fill="#272634" fill-rule="evenodd" clip-rule="evenodd"><path d="M63.33 125.87c3.24-1.8 6.42-3.24 9.2-5.22 2.72-1.92 5.05-4.4 7.7-6.78 2.2 3.05 4.47 6.22 6.74 9.37 3.88 5.4 8.28 10.35 13.78 14.1 2.24 1.55 4.78 2.8 7.37 3.63 3.73 1.2 6.9-.2 8.23-3.87 1.1-3.04 1.8-6.38 1.87-9.6.2-11.64 1.65-23 6.95-33.52 8.54-16.95 22.5-26.93 41-29.77 24.8-3.78 46.53 3.33 63.94 21.48 13.22 13.78 17.92 30.86 15.86 49.7-2.17 19.77-11.44 35.55-27.62 47.2-1.8 1.28-3.7 2.5-5.72 3.4-1.86.84-2.28 1.98-2.26 3.9.1 9.22.06 18.45.05 27.67 0 7.86-5.32 13.22-13.1 13.22-21.9 0-43.8 0-65.7 0-8.17-.02-13.3-5.26-13.28-13.5 0-4.22.1-8.45-.05-12.67-.05-1.28-.5-2.74-1.22-3.76-17.46-24.43-35-48.82-52.5-73.2-.45-.62-.86-1.25-1.22-1.77zM210.4 165.3c.95-.78 1.44-1.13 1.88-1.54 8.92-8.45 14.36-18.68 15.44-31 1.28-14.64-2.82-27.46-14-37.3C200.95 84.2 185.8 79.8 169.04 82.5c-15.93 2.6-26.07 12.15-30.33 27.8-.12.47-.08.98-.14 1.65.8 0 1.4 0 2 0 18.74 0 37.47 0 56.2-.02 8.7 0 13.63 4.84 13.64 13.5.02 12.35 0 24.72 0 37.08 0 .75 0 1.5 0 2.8zM174.2 188c7.3 2.38 12.03 1.07 14.4-4 2.22-4.67.4-9.53-4.85-12.98 5.46-4.06 7.1-8.96 4.5-13.54-2.7-4.83-7.4-5.88-14.42-3.23-.7-6.72-4.03-10.42-9.5-10.55-5.5-.13-9 3.66-9.88 10.7-6.38-2.46-10.94-1.6-13.7 2.66-1.62 2.5-2.42 5.4-1.12 8.1 1.15 2.4 3.14 4.4 4.77 6.6-4.53 2.98-6.5 8.07-4.1 12.5 1 1.82 2.8 3.5 4.62 4.55 3.32 1.94 6.77 1 10-.94.36 6.64 3.9 10.63 9.3 10.74 5.7.1 9.28-3.7 10-10.6zM56.44 123.24c-5.7-.05-11.27-2.48-15.52-7.8-1.3-1.6-1.45-3.2-.38-4.97 7.5-12.4 18.3-20.1 32.5-23 2.03-.4 3.3.57 4.32 2.16 4.97 7.62 3.96 18.2-2.46 25.53-4.47 5.1-10.64 7.97-18.46 8.08zM164.84 181.4c-5.47.03-9.87-4.23-9.96-9.65-.1-5.47 4.35-10.04 9.8-10.1 5.46-.07 9.96 4.43 9.96 9.95 0 5.42-4.36 9.8-9.8 9.8z"/></g></svg>