<svg xmlns="http://www.w3.org/2000/svg" width="300" height="300"><circle cx="149.427" cy="151.574" r="142.749" fill="#FFFFFD" stroke="#272634" stroke-width="5" stroke-miterlimit="10"/><g fill="#272634"><path d="M225.53 146.23c-2.65-20.3-17.45-33.58-22.26-37.4-1.5-2.14-3.9-3.5-7.33-3.8-24.3-2.12-62.34 52.83-62.34 52.83s43.32-40.15 52.83-29.6c9.5 10.58-34.87 56-34.87 56 22.52-12.37 40.53-33.44 48.78-50.76 5.6 6.14 4.93 11.54 4.2 20.36-11.04 5.65-32.64 24.07-28.68 81.13 0 0 4.37-41.02 28.96-58.8.54 4.26 1.4 9.04 2.74 14.4 10.57 42.28 43.32 40.17 43.32 40.17-43.32-29.6-22.18-60.23-25.35-84.54z"/><circle cx="170.582" cy="83.366" r="19.548"/><circle cx="100.844" cy="192.199" r="19.547"/><path d="M98.13 153.93c-1.13-5.54-2-13.8-.6-23.83 50.04-22.87 39.24-71.57 39.24-71.57-8.22 39.6-24.36 48.55-33.1 50.4 1.16-2.66 2.5-5.37 4.04-8.13C126.74 67 76 43.74 67.04 43.74c0 0 38.57 18.5 26.94 49.66-10.48 28.13-19.68 42.5-12.05 60.95-22.92-5.16-29.68-43.5-29.68-43.5-5.8 24.82 9.5 66.03 46.5 57.58 36.97-8.46 48.07 9.5 48.07 9.5l1.06 2.65c-1.45-18.9-22.93-28.47-49.73-26.65z"/></g></svg>