<svg xmlns="http://www.w3.org/2000/svg" width="300" height="300"><circle cx="146.25" cy="149.582" r="141.912" fill="#fff" stroke="#272634" stroke-width="4.784" stroke-miterlimit="10"/><path fill="#272634" fill-rule="evenodd" d="M171.08 208.12c-2.76 2.35-5.62 4.6-8.23 7.08-1.3 1.25-2.58 2.83-3.2 4.5-2.63 7.22-5.08 14.5-7.48 21.8-1 3.06-2.7 5.2-6.03 5.3-3.5.1-5.35-2.05-6.44-5.2-1.42-4.14-3.14-8.18-4.56-12.32-.66-1.93-1.54-2.37-3.67-2.35-12.7.15-25.46 1.5-38.02-1.6-25.9-6.4-45.15-29.55-46.1-56.2-.42-11.6-1.47-23.38 1.36-34.84 5.27-21.37 18.36-36.03 38.9-43.97.66-.26 1.37-.38 2.2-.6-1.22 4.86-3 9.42-3.4 14.1-1.7 19.17-3.44 38.43 3.85 57 10.85 27.66 37.13 45.9 66.78 46.42 4.56.08 9.13 0 13.7 0 .12.3.24.58.35.87zM164.24 51.5c11.52-.35 22.96.2 33.67 4.94 25.8 11.44 40.27 31.2 41.7 59.5.57 11.36.3 22.97-1.44 34.18-2.46 15.9-11.28 28.6-23.77 38.78-1.56 1.25-2.86 3.16-3.55 5.03-2.5 6.7-4.65 13.53-7 20.3-1.9 5.47-5.9 8.5-11.1 8.57-5.18.06-9.28-2.92-11.36-8.3-1.16-3-2.4-5.95-3.33-9-.62-2.08-1.72-2.4-3.7-2.44-10.7-.26-21.6.56-31.98-1.36-31.15-5.78-53-31.7-54-63.35-.37-11.17-.63-22.67 1.53-33.53 6.32-31.84 33.24-53 65.97-53.32 2.78-.02 5.56 0 8.34 0zm27.94 160.18c.27-.03.53-.06.8-.08.36-.97.76-1.93 1.1-2.9 2.48-7.3 4.84-14.6 7.5-21.82.7-1.85 2.04-3.75 3.6-4.9 11.78-8.72 20.05-19.94 22.23-34.43 1.52-10.07 1.37-20.46 1.28-30.7-.24-24.8-18.37-47.04-42.56-52.66-11.3-2.63-22.8-1.73-34.22-1.34-24.15.83-45.6 18.97-51 42.5-2.6 11.33-1.8 22.83-1.32 34.23.97 23.57 17.6 44.17 40.38 50.36 13.43 3.64 27.2 2.25 40.84 1.5 2.6-.15 4.02 0 4.94 2.83 1.9 5.87 4.26 11.6 6.44 17.38z" clip-rule="evenodd"/><g fill="#272634"><path d="M113.2 100.4c.2 1.22.36 3.6.36 3.6.04.02 1.32-2.86 2.03-3.74.7-.87 1.48-1.5 2.33-1.83.9-.36 1.77-.3 2.6.2.84.52 1.5 1.5 2.03 2.94s.78 3.2.78 5.2c0 3.23-.64 6-1.9 8.18-1.07 1.8-2.33 2.78-3.78 2.98-.83.12-1.4-.07-2.07-.54-.67-.48-1.6-1.22-1.6-2.22 0 2.83 0 4.24 0 7.07 0 .54-.07.92.12 1.13.26.28.53.4.98.38.4-.03.9-.04.9-.07 0 .54 0 .8 0 1.36-3 .14-4 .2-7 .36 0-.5 0-.73 0-1.22 0-.03.57-.05.95-.07.44-.04.64-.17.86-.42s.2-.54.2-.9c0-7.1 0-10.62 0-17.7 0-.82 0-1.34-.32-1.55-.3-.2-.68-.12-1.68.26 0-.45 0-.68 0-1.14 2-.92 2.5-1.37 4.2-2.25zm4.08.08c-1.02.4-1.9 1.4-2.6 3-.7 1.58-1.05 3.6-1.05 6.06 0 2.5.34 4.25 1.02 5.33.68 1.07 1.55 1.54 2.62 1.37 1-.16 1.77-.83 2.3-2.03.7-1.56 1.04-3.8 1.04-6.65 0-2.97-.3-5-.93-6.06-.62-1.06-1.42-1.4-2.4-1.02zM125 96.11c3-.82 4-1.2 7-1.9 0 .63 0 .94 0 1.56 0 .06-.4.1-.65.16-.58.15-1 .37-1.2.66-.2.28-.32.64-.32 1.08 0 .2.02.38.08.56 1.53 4.7 2.3 7.12 3.83 12.14 1.14-4.47 1.7-6.76 2.85-11.4.2-.8.3-1.6.3-2.36 0-.6 0-1-.3-1.27s-.58-.35-1.58-.25c0-.63 0-.95 0-1.6 2-.54 3-.8 6-1.23 0 .65 0 .98 0 1.64-2 .37-2.1 1.33-2.5 2.84-2.05 8.08-3.2 12.04-5.22 19.67-.87 3.24-1.8 5.44-2.66 6.64-.88 1.2-1.84 1.8-2.84 1.85-.73 0-1.32-.27-1.76-.85-.44-.57-.67-1.3-.67-2.15 0-.65.14-1.2.4-1.63s.6-.68 1.02-.7c.36-.04.67.1.92.46s.37.8.37 1.3c0 .17-.02.4-.06.67-.02.22-.05.4-.05.5 0 .35.15.5.45.5.32 0 .68-.2 1.08-.6.4-.37.8-.97 1.14-1.8.35-.8.96-2.62 1.84-5.5-2.08-6.8-3.12-10.05-5.18-16.2-.2-.53-.6-.9-.88-1.1s-.4-.28-1.4-.22c0-.58 0-.88 0-1.47zM152.56 107.2c.4.18.58.27.97.44-.78 4.9-2.5 7.37-5.16 7.5-1.95.08-3.54-.9-4.77-2.92-1.23-2.02-1.85-4.73-1.85-8.2 0-4.03.67-7.25 2.03-9.7 1.35-2.44 2.94-3.82 4.78-4.06 1.38-.2 2.52.32 3.42 1.52s1.36 2.58 1.36 4.16c0 .95-.17 1.75-.5 2.4-.34.63-.74.97-1.2 1-.45.04-.83-.2-1.14-.68-.3-.5-.47-1.1-.47-1.84 0-.73.17-1.45.5-2.16.17-.33.25-.6.25-.77 0-.5-.2-.95-.58-1.37-.4-.42-.92-.6-1.6-.5-1.2.15-2.14 1.02-2.76 2.58-.9 2.25-1.35 5.1-1.35 8.57 0 3.3.4 5.76 1.2 7.4.8 1.65 1.8 2.46 3.04 2.4 1.7-.1 2.98-2 3.8-5.76zM166.26 106.85c.4.2.6.3.98.5-.78 4.92-2.5 7.38-5.2 7.4-1.95.02-3.56-1.06-4.8-3.22-1.25-2.17-1.87-5.06-1.87-8.7 0-4.2.68-7.53 2.05-9.93 1.36-2.4 2.97-3.66 4.83-3.7 1.38-.04 2.53.6 3.44 1.9.9 1.32 1.35 2.78 1.35 4.37 0 .97-.17 1.76-.5 2.38-.35.63-.74.94-1.2.94-.46 0-.84-.28-1.16-.8-.32-.53-.48-1.17-.48-1.92 0-.76.18-1.48.52-2.17.16-.3.24-.57.24-.76 0-.5-.2-.98-.6-1.44-.38-.47-.92-.7-1.6-.68-1.22.03-2.15.83-2.78 2.37-.9 2.23-1.36 5.16-1.36 8.76 0 3.43.4 6.02 1.2 7.77.8 1.75 1.84 2.62 3.1 2.6 1.7 0 3-1.9 3.82-5.68zM177 112.3c0 .76 0 1.14 0 1.9-3-.1-5-.13-8-.17 0-.77 0-1.15 0-1.93 1 0 1.05.02 1.7.03.8 0 1.3-.56 1.3-1.73 0-6.7 0-10.04 0-16.74 0-1.14-.5-1.73-1.24-1.76-.65-.02-.76-.04-1.76-.05 0-.77 0-1.16 0-1.93 3 .08 5 .17 8 .45 0 .76 0 1.14 0 1.9-1-.04-1-.06-1.56-.1-.86-.07-1.44.62-1.44 2.03 0 2.78 0 4.18 0 6.96 1 .03 1.13.05 1.82.1 1.03.05 1.83-.26 2.3-.92s.84-2.02 1.08-4.03c.2-1.66.4-2.82.57-3.47.17-.64.5-1.2.94-1.67.47-.47 1-.66 1.62-.58.82.1 1.45.66 1.88 1.64.43.98.65 1.96.65 2.95 0 .78-.14 1.42-.42 1.92-.28.5-.68.72-1.2.66-.5-.05-.85-.33-1.1-.83-.25-.5-.37-1.08-.37-1.73 0-.56.08-1.07.24-1.53.15-.42.23-.68.23-.78 0-.24-.1-.37-.32-.4-.35-.04-.66.17-.92.64s-.47 1.45-.64 2.94c-.26 2.28-.55 3.75-.88 4.4-.33.66-1.4 1.84-1.4 1.84.07.25 3.05 2.02 3.5 4.38.27 1.34.4 2 .67 3.33.3 1.46.6 2.2.97 2.2.47.04.8-1.05.96-3.24.42.02.64.04 1.06.07-.2 2.5-.54 4.08-1.06 4.75-.52.66-1.15.98-1.9.95-1.23-.06-2.04-1.27-2.44-3.65-.27-1.57-.4-2.37-.67-3.95-.44-2.7-1.53-4.12-3.06-4.2-.8-.04-1.1-.06-2.1-.1 0 2.83 0 4.25 0 7.08 0 .84.18 1.43.34 1.76.16.35.54.52.96.54.64.02.7.03 1.7.06zM199 97.84c0-.36 0-.54 0-.9 0-.72-.62-1.16-1.24-1.3-.63-.16-.76-.23-1.76-.38 0-.7 0-1.05 0-1.75 3 .76 5 1.18 8 2.12 0 .66 0 .98 0 1.64-1-.16-1.02-.24-1.57-.4-.82-.22-1.43.3-1.43 1.58 0 5.7 0 8.55 0 14.25 0 1 .55 1.53 1.25 1.62.63.08.75.12 1.75.2 0 .66 0 1 0 1.65-3-.36-5-.52-8-.8 0-.7 0-1.05 0-1.75 1 .06 1.02.1 1.6.15.84.1 1.4-.5 1.4-1.8 0-4.68 0-7.03 0-11.73-3 3.94-4 6.07-7 10.53 0 .34 0 .5 0 .84 0 1.08.52 1.65 1.23 1.7.64.07.77.1 1.77.16 0 .7 0 1.07 0 1.77-4-.26-5-.38-8-.57 0-.74 0-1.1 0-1.85 0 .05.52.07 1.1.12.85.06.9-.6.9-1.95 0-6.18 0-9.27 0-15.46 0-1.07-.03-1.68-.74-1.8-.63-.1-1.26-.15-1.26-.25 0-.74 0-1.1 0-1.85 3 .5 4 .82 8 1.53 0 .7 0 1.06 0 1.77-1-.12-1-.18-1.58-.3-.84-.17-1.42.43-1.42 1.8 0 4.76 0 7.15 0 11.93 3-4.46 4-6.58 7-10.5zM217 103.44c0-.3 0-.44 0-.73 0-.6-.16-1.02-.75-1.26-.6-.24-1.25-.35-1.25-.6 0-.57 0-.86 0-1.44 3 1.2 4 1.86 7 3.26 0 .52 0 .77 0 1.3-1-.25-1.04-.37-1.56-.6-.8-.35-1.44 0-1.44 1 0 4.58 0 6.87 0 11.44 0 .8.6 1.27 1.27 1.4.6.12.73.18 1.73.3 0 .52 0 .78 0 1.3-3-.54-5-.78-8-1.24 0-.58 0-.87 0-1.45 1 .1 1.04.15 1.6.25.8.14 1.4-.3 1.4-1.36 0-3.84 0-5.76 0-9.6-3 2.77-4 4.38-7 7.95 0 .3 0 .43 0 .72 0 .9.56 1.42 1.24 1.53.62.1.76.15 1.76.25 0 .6 0 .9 0 1.5-3-.45-5-.65-8-1.02 0-.65 0-.98 0-1.62 1 .08 1.03.12 1.6.2.82.12 1.4-.4 1.4-1.6 0-5.34 0-8.02 0-13.38 0-.94-.56-1.52-1.25-1.73-.6-.2-.75-.3-1.75-.5 0-.64 0-.97 0-1.6 3 .96 5 1.5 8 2.67 0 .6 0 .9 0 1.5-1-.22-1.03-.32-1.57-.5-.8-.3-1.43.14-1.43 1.3 0 4.08 0 6.12 0 10.2 3-3.53 4-5.12 7-7.83zm-1.27-8.83c0-.12-.04-.34-.1-.64-.07-.33-.1-.6-.1-.8 0-1.08.4-1.4 1.2-.96.35.18.65.5.9.95.25.44.38.95.38 1.53 0 1.04-.4 1.67-1.2 1.93-.8.27-1.82.13-3.04-.4-1.3-.57-2.36-1.34-3.18-2.35s-1.23-2.14-1.23-3.35c0-.68.13-1.13.4-1.35.26-.2.57-.24.93-.06.37.16.67.47.9.9s.34.9.34 1.43c0 .22-.05.48-.13.77-.1.28-.12.5-.12.6 0 .33.22.68.66 1.05.44.37.9.66 1.35.87 1.36.62 2.03.6 2.03-.1zM129.7 166.22c.4.13.62.2 1.04.33.03.3.05.44.08.75.17 1.48.45 2.3.84 2.42.34.1.65-.4.93-1.56.2-.88.3-1.33.52-2.22.33-1.38.76-2.25 1.3-2.63.55-.37 1.84-.65 1.84-.65 0-.04-2.7-1.57-3.45-2.78-.73-1.22-1.1-2.53-1.1-3.94 0-1.5.45-2.7 1.36-3.66.9-.95 2.43-1.3 4.35-1.02 3.37.47 4.6.67 8.6 1 0 .75 0 1.12 0 1.86-1-.05-1-.08-1.6-.15-.85-.1-1.4.54-1.4 1.9 0 6.25 0 9.37 0 15.6 0 1.08.52 1.7 1.25 1.84.63.12.75.18 1.75.3 0 .74 0 1.12 0 1.86-4-.6-5-.98-8-1.84 0-.7 0-1.07 0-1.78 0 .16.57.24 1.2.4.76.18.8-.4.8-1.78 0-2.57 0-3.85 0-6.4 0-.16-.94-.24-1.72-.4-1.3-.27-2.1.9-2.63 3.47-.2 1.04-.26 1.55-.47 2.58-.25 1.24-.53 2.06-.9 2.47s-.94.5-1.68.25c-.66-.22-1.26-.73-1.8-1.5-.57-.8-.93-2.37-1.1-4.7zm10.3-4c0-2.66 0-4 0-6.66 0-1.38-.12-2.12-.84-2.23-.5-.07-.65-.1-1.15-.18-1.57-.23-2.52.02-2.98.77-.45.75-.65 1.7-.65 2.9 0 .95.15 1.78.43 2.5.28.73.66 1.27 1.1 1.62.47.36 1.04.66 2.2.9.85.16 1.9.24 1.9.4zM155.22 164.42c0 .1 4.23 2.84 4.23 6.48 0 2.08-.5 3.75-1.53 4.96s-2.58 1.73-4.66 1.48c-2.08-.24-3.58-1.16-4.5-2.64-.9-1.48-1.37-2.98-1.37-4.5 0-.93.16-1.7.48-2.3.33-.6.73-.86 1.2-.8.46.06.84.37 1.15.92.32.56.48 1.22.48 2 0 .55-.14 1.18-.43 1.87-.22.52-.33.88-.33 1.08 0 .43.24.93.7 1.5.5.55 1.17.9 2.05 1 2.65.32 3.98-1.4 3.98-5.02 0-1.3-.16-2.33-.47-3.1-.3-.8-.7-1.33-1.14-1.6-.44-.3-.9-.47-1.84-.55-.2 0-.22-.02-.22-.04 0-.76 0-1.14 0-1.9 1 .14 2.28-.22 2.8-1.03.55-.82.7-1.92.7-3.3 0-3.1-1.1-4.7-3.2-4.82-.73-.04-1.48.15-2.2.57s-1.5 1.6-2.3 3.57c-.35-.27-.53-.4-.88-.67 1.16-3.76 3.07-5.57 5.75-5.42 1.62.1 2.94.7 3.96 1.9 1 1.17 1.52 2.7 1.52 4.63 0 3-3.93 5.74-3.93 5.74zM167 163.3c1 0 1.1-.02 1.86-.04 1.8-.04 3.12.2 4 .75.9.57 1.58 1.4 2.07 2.53.5 1.13.74 2.4.74 3.8 0 1.84-.48 3.43-1.4 4.76-.95 1.32-2.18 2.07-4.1 2.15-3.34.15-5.17.15-8.17.03 0-.78 0-1.16 0-1.94 0 .02.5.03 1.1.05.85 0 .9-.7.9-2.16 0-6.55 0-9.83 0-16.38 0-1.15 0-1.73-.73-1.74-.66 0-1.27 0-1.27-.03 0-.78 0-1.16 0-1.94 3 .07 5 .06 8 0 0 .76 0 1.15 0 1.92-1 .02-1.02.02-1.67.03-.86.02-1.33.74-1.33 2.16 0 2.42 0 3.63 0 6.04zm0 1.93c0 3.2 0 4.8 0 8 0 1.45.37 2.17 1.2 2.15.73-.02 1.08-.03 1.8-.06 2-.08 2.96-1.8 2.96-5.1 0-1.4-.17-2.47-.48-3.25-.32-.78-.74-1.28-1.26-1.5-.53-.2-1.26-.3-2.3-.27-.78.02-.92.02-1.92.03zm9-10.36c0-.77 0-1.15 0-1.92 3-.16 4-.27 8-.55 0 .75 0 1.13 0 1.87-1 .06-1 .08-1.57.13-.85.08-1.43.8-1.43 2.2 0 6.42 0 9.62 0 16.03 0 1.13.5 1.64 1.23 1.53.65-.1.77-.15 1.77-.26 0 .74 0 1.12 0 1.87-4 .56-5 .77-8 1.08 0-.76 0-1.14 0-1.9 0-.06.5-.1 1.08-.16.85-.1.92-.86.92-2.28 0-6.45 0-9.67 0-16.12 0-1.13 0-1.67-.75-1.63-.65.04-1.25.06-1.25.1zM193 171.9c0 .7 0 1.07 0 1.8-3 .84-5 1.2-8 1.8 0-.74 0-1.1 0-1.86 1-.1 1.06-.17 1.7-.3.78-.15 1.3-.8 1.3-1.9 0-6.4 0-9.6 0-15.98 0-1.1-.52-1.6-1.25-1.52-.63.08-.75.1-1.75.18 0-.74 0-1.12 0-1.86 3-.3 4.74-.5 7.85-.9 0 .7 0 1.06 0 1.78-.54.08-.92.12-1.47.2-.85.1-1.38.84-1.38 2.18 0 2.63 0 3.95 0 6.58 1-.12 1.12-.18 1.8-.3 1.02-.2 1.8-.7 2.26-1.43.46-.75.83-2.1 1.07-4.04.2-1.6.4-2.72.56-3.37.15-.64.47-1.24.9-1.8.46-.54.98-.86 1.58-.96.8-.13 1.43.2 1.84.95.42.76.63 1.6.63 2.5 0 .7-.13 1.32-.4 1.87-.28.55-.67.9-1.17 1-.48.1-.84-.04-1.08-.43-.24-.4-.36-.9-.36-1.5 0-.5.08-1 .23-1.47.15-.42.23-.7.23-.78 0-.2-.1-.3-.3-.26-.36.05-.67.33-.92.83s-.47 1.47-.64 2.9c-.25 2.17-.54 3.62-.86 4.32s-1.36 2.1-1.36 2.1c.07.15 2.98 1 3.43 3 .26 1.15.4 1.72.65 2.85.28 1.24.6 1.8.95 1.68.45-.14.77-1.26.93-3.32.42-.13.63-.2 1.04-.32-.2 2.34-.53 3.9-1.03 4.72-.52.8-1.14 1.35-1.9 1.6-1.18.38-1.97-.47-2.36-2.54-.27-1.38-.4-2.07-.66-3.46-.43-2.4-1.5-3.42-3.02-3.1-.78.14-1.06.22-2.06.36 0 2.7 0 4.03 0 6.7 0 .8.18 1.33.34 1.6.16.3.56.38.96.28.63-.16.7-.24 1.7-.4z"/></g></svg>