<svg xmlns="http://www.w3.org/2000/svg" width="300" height="300"><circle cx="150.439" cy="150.771" r="146.102" fill="#fff" stroke="#272634" stroke-width="4.925" stroke-miterlimit="10"/><g fill="#272634"><circle cx="91.835" cy="77.504" r="17.746"/><path d="M95.78 157.03s-19.72-6.57-20.38-25.63c-.1-3.13 1.5-6.2 4.45-9.17 9.1 19.75 23.68 30.66 32.92 35.93-4.36 5.02-8.12 10.53-11.08 16.62C67.5 245.1 113.5 263.5 113.5 263.5s-23.66-29.57 21.04-82.8c44.7-53.24 140-71.65 140-71.65s-90-2.97-142.87 32.64c-16.5-9.08-22.03-25.26-23.86-34.2 22.83-7.74 54.54-13.16 84.56-14.22 0 0-53.24-13.8-113.05 14.46-59.8 28.26-1.97 49.3 16.43 49.3z"/></g></svg>