<?xml version="1.0" encoding="utf-8"?>
<!-- Generator: Adobe Illustrator 16.0.0, SVG Export Plug-In . SVG Version: 6.00 Build 0)  -->
<!DOCTYPE svg PUBLIC "-//W3C//DTD SVG 1.1//EN" "http://www.w3.org/Graphics/SVG/1.1/DTD/svg11.dtd">
<svg version="1.1" id="Layer_1" xmlns="http://www.w3.org/2000/svg" xmlns:xlink="http://www.w3.org/1999/xlink" x="0px" y="0px"
	 width="300px" height="300px" viewBox="0 0 300 300" enable-background="new 0 0 300 300" xml:space="preserve">
<circle fill-rule="evenodd" clip-rule="evenodd" fill="#333333" stroke="#333333" stroke-width="1.224" stroke-miterlimit="10" cx="152.298" cy="145.897" r="137.289"/>
<path fill-rule="evenodd" clip-rule="evenodd" fill="#FFFFFF" d="M183.931,133.41c-16.896-20.508-33.787-41.019-52.146-63.313
	c-12.16,19.834-23.521,38.36-36.509,59.549c1.298-7.196,2.074-11.502,2.852-15.813c-0.743-0.335-1.491-0.667-2.236-1
	c-6.652,10.139-13.302,20.284-21.424,32.668c0-9.852,0-17.321,0-24.794c-0.789-0.288-1.577-0.573-2.365-0.865
	c-7.879,10.656-15.76,21.312-25.464,34.427c2.708-12.105,4.816-21.521,6.925-30.942c-0.911-0.383-1.82-0.768-2.733-1.15
	c-7.291,10.515-14.581,21.027-21.876,31.542c-0.602-0.313-1.204-0.615-1.807-0.927c6.819-17.662,13.638-35.324,20.459-52.984
	c-0.829-0.529-1.661-1.059-2.49-1.588c-9.054,10.126-18.104,20.251-27.156,30.377c-0.567-0.463-1.135-0.937-1.702-1.399
	c10.654-13.614,21.312-27.22,32.893-42.014c11.002,9.513,21.319,18.435,32.611,28.2c15.958-21.986,31.282-43.102,47.376-65.275
	c6.688,7.119,12.619,13.427,19.659,20.916c7.985-11.765,15.219-22.408,23.063-33.963c17.048,23.995,33.319,46.895,50.379,70.912
	c6.954-6.034,13.172-11.431,20.181-17.518c15.518,20.883,30.645,41.244,45.773,61.604c-0.577,0.53-1.156,1.06-1.729,1.589
	c-11.094-12.433-22.177-24.866-33.271-37.3c-0.791,0.593-1.581,1.182-2.371,1.772c4.547,8.22,9.095,16.447,13.646,24.668
	c-0.502,0.468-1.01,0.931-1.513,1.404c-9.071-10.702-18.141-21.406-27.21-32.104c-0.908,0.455-1.819,0.912-2.729,1.368
	c5.985,14.37,11.967,28.74,17.957,43.118c-0.557,0.361-1.119,0.727-1.676,1.09c-17.329-25.763-34.651-51.526-51.979-77.292
	c-0.855,0.487-1.716,0.973-2.578,1.462c4.619,8.722,9.24,17.444,13.859,26.167c-0.342,0.198-0.685,0.386-1.032,0.586
	c-6.427-8.52-12.858-17.035-19.282-25.549c-0.873,0.462-1.744,0.924-2.614,1.388c7.015,15.3,14.031,30.599,21.055,45.897
	c-0.479,0.424-0.945,0.845-1.414,1.266c-14.053-17.41-28.1-34.823-42.157-52.234c-0.788,0.489-1.578,0.976-2.367,1.463
	c8.151,18.014,16.301,36.031,24.448,54.05C184.799,133.049,184.365,133.229,183.931,133.41z"/>
<rect x="20.502" y="53.996" fill-rule="evenodd" clip-rule="evenodd" fill="none" width="284.089" height="215.445"/>
<text transform="matrix(0.8379 0 0 1 65.8564 242.3066)" fill="#F5D04C" font-family="'NexaRustSans-Black'" font-size="128.0068">RH</text>
</svg>
