<?xml version="1.0" encoding="utf-8"?>
<!-- Generator: Adobe Illustrator 16.0.0, SVG Export Plug-In . SVG Version: 6.00 Build 0)  -->
<!DOCTYPE svg PUBLIC "-//W3C//DTD SVG 1.1//EN" "http://www.w3.org/Graphics/SVG/1.1/DTD/svg11.dtd">
<svg version="1.1" id="Layer_1" xmlns="http://www.w3.org/2000/svg" xmlns:xlink="http://www.w3.org/1999/xlink" x="0px" y="0px"
	 width="300px" height="300px" viewBox="0 0 300 300" enable-background="new 0 0 300 300" xml:space="preserve">
<circle fill="#FFFFFF" stroke="#272634" stroke-width="4.869" stroke-miterlimit="10" cx="150.554" cy="150.886" r="144.446"/>
<path fill-rule="evenodd" clip-rule="evenodd" fill="#272634" d="M198.896,194.988c-32.91,0-65.567,0-98.441,0
	c0-0.68-0.002-1.313,0-1.944c0.107-22.959,0.213-45.917,0.321-68.877c0.018-3.684-0.209-3.975-3.824-4.841
	c-13.925-3.334-23.798-16.24-23.658-30.924c0.136-14.191,10.42-26.889,24.344-29.82c10.773-2.267,20.292,0.378,28.45,7.809
	c0.878,0.8,1.743,1.613,2.735,2.533c5.136-9.436,12.517-15.219,23.52-15.169c10.915,0.049,18.253,5.781,23.259,15.227
	c11.659-11.111,24.378-14.611,38.763-5.716c10.729,6.634,14.939,16.414,12.988,28.749c-2.535,16.01-13.304,22.993-28.457,25.14
	c0,13.01,0,25.973,0,38.935C198.896,169.003,198.896,181.916,198.896,194.988z"/>
<path fill-rule="evenodd" clip-rule="evenodd" fill="#272634" d="M150.038,203.467c14.943,0,29.887-0.012,44.831,0.018
	c1.57,0.002,3.18,0.063,4.705,0.392c4.869,1.054,7.515,4.701,7.26,9.778c-0.217,4.312-3.435,7.587-8.125,8.205
	c-1.185,0.157-2.391,0.226-3.587,0.226c-30.542,0.012-61.084,0.016-91.625-0.009c-1.459-0.002-2.962-0.11-4.368-0.47
	c-3.852-0.985-6.405-4.357-6.775-8.679c-0.295-3.448,1.651-6.651,5.373-8.145c1.823-0.732,3.887-1.194,5.846-1.206
	c15.488-0.095,30.977-0.053,46.465-0.053C150.038,203.505,150.038,203.486,150.038,203.467z"/>
</svg>
