<?xml version="1.0" encoding="utf-8"?>
<!-- Generator: Adobe Illustrator 16.0.0, SVG Export Plug-In . SVG Version: 6.00 Build 0)  -->
<!DOCTYPE svg PUBLIC "-//W3C//DTD SVG 1.1//EN" "http://www.w3.org/Graphics/SVG/1.1/DTD/svg11.dtd">
<svg version="1.1" id="Layer_1" xmlns="http://www.w3.org/2000/svg" xmlns:xlink="http://www.w3.org/1999/xlink" x="0px" y="0px"
	 width="300px" height="300px" viewBox="0 0 300 300" enable-background="new 0 0 300 300" xml:space="preserve">
<circle fill="#FFFFFD" stroke="#272634" stroke-width="5" stroke-miterlimit="10" cx="149.427" cy="151.574" r="142.749"/>
<g>
	<path fill="#272634" d="M225.526,146.234c-2.646-20.297-17.45-33.585-22.259-37.415c-1.506-2.133-3.893-3.494-7.327-3.793
		c-24.302-2.113-62.341,52.831-62.341,52.831s43.32-40.15,52.831-29.584c9.51,10.566-34.869,56-34.869,56
		c22.514-12.381,40.526-33.458,48.774-50.771c5.614,6.136,4.931,11.536,4.211,20.359c-11.044,5.645-32.645,24.066-28.684,81.131
		c0,0,4.37-41.012,28.96-58.801c0.535,4.273,1.396,9.047,2.74,14.422c10.566,42.266,43.322,40.154,43.322,40.154
		C207.563,201.18,228.696,170.537,225.526,146.234z"/>
	<circle fill="#272634" cx="170.582" cy="83.366" r="19.548"/>
	<circle fill="#272634" cx="100.844" cy="192.199" r="19.547"/>
	<path fill="#272634" d="M98.13,153.932c-1.134-5.54-2.013-13.802-0.591-23.829c50.032-22.876,39.23-71.568,39.23-71.568
		c-8.221,39.607-24.358,48.549-33.109,50.397c1.167-2.66,2.498-5.37,4.051-8.132c19.02-33.812-31.699-57.058-40.68-57.058
		c0,0,38.567,18.491,26.943,49.662c-10.488,28.129-19.68,42.494-12.056,60.946c-22.918-5.161-29.68-43.512-29.68-43.512
		c-5.812,24.832,9.51,66.039,46.491,57.588c36.983-8.455,48.077,9.508,48.077,9.508l1.057,2.643
		C146.41,161.668,124.929,152.113,98.13,153.932z"/>
</g>
</svg>
