<?xml version="1.0" encoding="utf-8"?>
<!-- Generator: Adobe Illustrator 16.0.0, SVG Export Plug-In . SVG Version: 6.00 Build 0)  -->
<!DOCTYPE svg PUBLIC "-//W3C//DTD SVG 1.1//EN" "http://www.w3.org/Graphics/SVG/1.1/DTD/svg11.dtd">
<svg version="1.1" id="Layer_1" xmlns="http://www.w3.org/2000/svg" xmlns:xlink="http://www.w3.org/1999/xlink" x="0px" y="0px"
	 width="300px" height="300px" viewBox="0 0 300 300" enable-background="new 0 0 300 300" xml:space="preserve">
<circle fill="#FFFFFF" stroke="#272634" stroke-width="4.7836" stroke-miterlimit="10" cx="146.25" cy="149.582" r="141.912"/>
<path fill-rule="evenodd" clip-rule="evenodd" fill="#272634" d="M171.084,208.119c-2.759,2.347-5.62,4.587-8.236,7.082
	c-1.313,1.252-2.578,2.825-3.19,4.499c-2.641,7.217-5.091,14.507-7.485,21.81c-1.001,3.047-2.712,5.199-6.038,5.294
	c-3.489,0.103-5.346-2.05-6.431-5.21c-1.423-4.138-3.142-8.177-4.559-12.316c-0.66-1.927-1.545-2.371-3.678-2.347
	c-12.693,0.149-25.457,1.487-38.016-1.604c-25.912-6.385-45.15-29.548-46.104-56.195c-0.416-11.615-1.462-23.385,1.362-34.842
	c5.265-21.361,18.35-36.017,38.893-43.963c0.655-0.254,1.363-0.376,2.191-0.6c-1.211,4.859-2.99,9.42-3.401,14.1
	c-1.685,19.176-3.437,38.437,3.855,57.011c10.856,27.651,37.131,45.888,66.782,46.411c4.564,0.079,9.134,0.012,13.699,0.012
	C170.848,207.546,170.965,207.833,171.084,208.119z"/>
<path fill-rule="evenodd" clip-rule="evenodd" fill="#272634" d="M164.241,51.499c11.518-0.347,22.954,0.19,33.67,4.941
	c25.804,11.44,40.26,31.194,41.685,59.502c0.571,11.359,0.296,22.971-1.439,34.182c-2.461,15.895-11.279,28.61-23.771,38.775
	c-1.542,1.253-2.842,3.163-3.539,5.035c-2.492,6.701-4.644,13.53-6.992,20.286c-1.902,5.475-5.906,8.512-11.108,8.576
	c-5.18,0.064-9.282-2.912-11.358-8.293c-1.153-2.989-2.397-5.954-3.317-9.017c-0.62-2.062-1.727-2.375-3.716-2.424
	c-10.673-0.259-21.581,0.56-31.968-1.367c-31.14-5.776-52.986-31.686-53.998-63.344c-0.357-11.171-0.621-22.673,1.537-33.534
	c6.321-31.835,33.24-52.999,65.971-53.316C158.677,51.476,161.459,51.499,164.241,51.499z M192.181,211.678
	c0.266-0.027,0.529-0.054,0.795-0.079c0.366-0.97,0.763-1.93,1.096-2.909c2.489-7.278,4.85-14.604,7.522-21.813
	c0.684-1.844,2.03-3.749,3.6-4.911c11.768-8.702,20.034-19.928,22.212-34.416c1.516-10.072,1.366-20.458,1.27-30.697
	c-0.233-24.812-18.367-47.044-42.553-52.66c-11.308-2.626-22.816-1.721-34.22-1.329c-24.148,0.829-45.608,18.97-51.004,42.506
	c-2.595,11.316-1.796,22.817-1.323,34.217c0.978,23.588,17.591,44.187,40.382,50.37c13.434,3.646,27.194,2.25,40.846,1.495
	c2.593-0.143,4.018,0.012,4.933,2.843C187.637,200.167,190.005,205.892,192.181,211.678z"/>
<g>
	<g>
		<path fill="#272634" d="M113.198,100.413c0.205,1.205,0.365,3.6,0.365,3.6c0.036,0.006,1.319-2.871,2.03-3.748
			c0.711-0.877,1.49-1.5,2.338-1.835c0.905-0.358,1.773-0.298,2.604,0.212c0.831,0.51,1.508,1.487,2.028,2.926
			s0.78,3.188,0.78,5.203c0,3.228-0.646,5.992-1.915,8.176c-1.055,1.816-2.314,2.783-3.771,2.987
			c-0.828,0.116-1.404-0.073-2.067-0.541c-0.663-0.468-1.591-1.211-1.591-2.212c0,2.827,0,4.24,0,7.066
			c0,0.547-0.067,0.923,0.125,1.133c0.252,0.275,0.529,0.409,0.979,0.378c0.387-0.026,0.897-0.04,0.897-0.065
			c0,0.548,0,0.821,0,1.369c-3,0.134-4,0.206-7,0.36c0-0.489,0-0.734,0-1.223c0-0.03,0.572-0.044,0.953-0.073
			c0.441-0.034,0.634-0.171,0.855-0.415s0.192-0.554,0.192-0.924c0-7.074,0-10.61,0-17.684c0-0.825-0.014-1.345-0.319-1.551
			c-0.304-0.207-0.681-0.124-1.681,0.261c0-0.461,0-0.692,0-1.153C111,101.738,111.508,101.289,113.198,100.413z M117.28,100.479
			c-1.025,0.387-1.887,1.41-2.591,2.998c-0.704,1.588-1.055,3.59-1.055,6.063c0,2.497,0.339,4.252,1.02,5.326
			c0.681,1.073,1.549,1.548,2.612,1.374c0.996-0.164,1.776-0.831,2.307-2.029c0.695-1.568,1.037-3.815,1.037-6.657
			c0-2.979-0.314-5.019-0.938-6.067C119.047,100.436,118.249,100.113,117.28,100.479z"/>
		<path fill="#272634" d="M125,96.115c3-0.833,4-1.215,7-1.909c0,0.622,0,0.934,0,1.556c0,0.062-0.408,0.094-0.654,0.157
			c-0.575,0.148-0.988,0.369-1.197,0.657c-0.209,0.288-0.323,0.649-0.323,1.083c0,0.195,0.024,0.383,0.082,0.563
			c1.523,4.684,2.285,7.12,3.818,12.142c1.14-4.478,1.71-6.76,2.855-11.389c0.207-0.826,0.309-1.62,0.309-2.377
			c0-0.584-0.019-1.008-0.304-1.271S136,94.979,135,95.082c0-0.635,0-0.953,0-1.588c2-0.551,3-0.8,6-1.247c0,0.658,0,0.986,0,1.644
			c-2,0.383-2.109,1.341-2.494,2.846c-2.052,8.087-3.195,12.043-5.23,19.669c-0.864,3.238-1.79,5.43-2.656,6.63
			c-0.876,1.215-1.843,1.818-2.84,1.85c-0.726,0.023-1.323-0.256-1.762-0.831c-0.438-0.575-0.664-1.29-0.664-2.153
			c0-0.648,0.131-1.189,0.401-1.63s0.605-0.68,1.011-0.714c0.367-0.031,0.675,0.127,0.926,0.476s0.377,0.783,0.377,1.3
			c0,0.163-0.016,0.39-0.059,0.667c-0.034,0.22-0.058,0.388-0.058,0.491c0,0.354,0.15,0.523,0.45,0.509
			c0.32-0.015,0.68-0.21,1.083-0.589c0.403-0.38,0.781-0.977,1.131-1.799c0.351-0.822,0.965-2.636,1.847-5.508
			c-2.084-6.792-3.123-10.053-5.186-16.194c-0.183-0.536-0.606-0.905-0.881-1.109S126,97.523,125,97.584
			C125,96.997,125,96.703,125,96.115z"/>
		<path fill="#272634" d="M152.555,107.206c0.391,0.171,0.586,0.259,0.977,0.433c-0.782,4.9-2.509,7.371-5.166,7.494
			c-1.948,0.09-3.535-0.896-4.767-2.916c-1.233-2.02-1.848-4.732-1.848-8.204c0-4.023,0.673-7.239,2.026-9.684
			c1.352-2.445,2.947-3.833,4.785-4.074c1.378-0.181,2.519,0.328,3.42,1.52s1.353,2.589,1.353,4.165
			c0,0.949-0.167,1.745-0.503,2.388c-0.336,0.643-0.735,0.982-1.195,1.019c-0.451,0.037-0.831-0.194-1.14-0.685
			c-0.31-0.491-0.466-1.103-0.466-1.839c0-0.735,0.171-1.455,0.511-2.16c0.161-0.334,0.24-0.594,0.24-0.778
			c0-0.486-0.195-0.94-0.585-1.358c-0.39-0.417-0.921-0.583-1.591-0.5c-1.218,0.152-2.145,1.025-2.768,2.578
			c-0.9,2.245-1.344,5.099-1.344,8.562c0,3.299,0.397,5.758,1.194,7.407c0.797,1.65,1.814,2.451,3.054,2.386
			C150.45,112.871,151.722,110.97,152.555,107.206z"/>
		<path fill="#272634" d="M166.262,106.854c0.393,0.197,0.589,0.298,0.981,0.497c-0.785,4.923-2.517,7.38-5.193,7.404
			c-1.963,0.018-3.567-1.061-4.813-3.228c-1.247-2.167-1.867-5.054-1.867-8.693c0-4.218,0.68-7.531,2.047-9.938
			c1.366-2.407,2.977-3.658,4.828-3.704c1.389-0.034,2.537,0.611,3.443,1.918c0.905,1.307,1.357,2.766,1.357,4.363
			c0,0.962-0.167,1.754-0.504,2.379c-0.337,0.625-0.736,0.938-1.199,0.938c-0.453,0-0.837-0.267-1.148-0.794
			c-0.312-0.528-0.471-1.167-0.471-1.921c0-0.752,0.173-1.473,0.515-2.161c0.161-0.326,0.244-0.584,0.244-0.772
			c0-0.497-0.199-0.98-0.592-1.447c-0.393-0.466-0.925-0.694-1.6-0.678c-1.228,0.028-2.163,0.832-2.791,2.377
			c-0.909,2.235-1.359,5.165-1.359,8.766c0,3.431,0.403,6.016,1.208,7.767c0.805,1.752,1.831,2.624,3.08,2.612
			C164.148,112.523,165.425,110.631,166.262,106.854z"/>
		<path fill="#272634" d="M177,112.297c0,0.763,0,1.145,0,1.907c-3-0.104-5-0.138-8-0.169c0-0.772,0-1.159,0-1.931
			c1,0.007,1.054,0.011,1.688,0.021c0.805,0.013,1.313-0.56,1.313-1.724c0-6.695,0-10.042,0-16.736c0-1.147-0.514-1.738-1.244-1.765
			c-0.643-0.024-0.756-0.035-1.756-0.051c0-0.772,0-1.159,0-1.931c3,0.085,5,0.175,8,0.45c0,0.763,0,1.145,0,1.908
			c-1-0.047-0.993-0.068-1.56-0.109c-0.864-0.063-1.44,0.619-1.44,2.034c0,2.783,0,4.174,0,6.957c1,0.032,1.131,0.05,1.817,0.089
			c1.034,0.059,1.834-0.244,2.3-0.911s0.844-2.012,1.084-4.03c0.199-1.668,0.396-2.825,0.566-3.472
			c0.171-0.647,0.488-1.206,0.944-1.674c0.455-0.468,0.992-0.663,1.603-0.584c0.829,0.108,1.458,0.66,1.887,1.64
			c0.429,0.98,0.644,1.964,0.644,2.957c0,0.777-0.141,1.416-0.419,1.92c-0.279,0.504-0.677,0.728-1.195,0.67
			c-0.49-0.055-0.857-0.331-1.103-0.833c-0.244-0.502-0.366-1.08-0.366-1.733c0-0.552,0.078-1.067,0.24-1.528
			c0.146-0.415,0.224-0.674,0.224-0.774c0-0.233-0.105-0.364-0.314-0.389c-0.36-0.043-0.669,0.168-0.929,0.634
			c-0.26,0.466-0.477,1.446-0.646,2.941c-0.26,2.276-0.552,3.746-0.877,4.402c-0.326,0.656-1.393,1.837-1.393,1.837
			c0.061,0.251,3.04,2.023,3.5,4.382c0.264,1.334,0.396,2,0.659,3.329c0.289,1.455,0.614,2.188,0.974,2.209
			c0.47,0.027,0.79-1.056,0.959-3.25c0.425,0.032,0.638,0.047,1.063,0.081c-0.189,2.497-0.543,4.079-1.061,4.746
			c-0.518,0.668-1.154,0.985-1.913,0.95c-1.217-0.057-2.027-1.264-2.427-3.644c-0.269-1.577-0.401-2.368-0.67-3.95
			c-0.44-2.706-1.527-4.12-3.063-4.204c-0.795-0.043-1.088-0.063-2.088-0.098c0,2.833,0,4.25,0,7.084c0,0.836,0.18,1.422,0.34,1.759
			c0.16,0.337,0.544,0.511,0.956,0.524C175.94,112.262,176,112.273,177,112.297z"/>
		<path fill="#272634" d="M199,97.837c0-0.357,0-0.536,0-0.894c0-0.722-0.621-1.163-1.242-1.313
			c-0.625-0.15-0.758-0.224-1.758-0.367c0-0.7,0-1.05,0-1.75c3,0.747,5,1.168,8,2.106c0,0.658,0,0.986,0,1.644
			c-1-0.161-1.016-0.238-1.568-0.393C201.607,96.64,201,97.165,201,98.437c0,5.7,0,8.55,0,14.25c0,1.002,0.547,1.547,1.254,1.635
			c0.623,0.077,0.746,0.118,1.746,0.198c0,0.658,0,0.987,0,1.645c-3-0.354-5-0.513-8-0.794c0-0.7,0-1.05,0-1.75
			c1,0.059,1.024,0.088,1.605,0.15c0.831,0.089,1.395-0.505,1.395-1.787c0-4.698,0-7.045,0-11.744c-3,3.937-4,6.068-7,10.534
			c0,0.335,0,0.503,0,0.838c0,1.071,0.519,1.638,1.228,1.702c0.646,0.059,0.772,0.089,1.772,0.151c0,0.708,0,1.061,0,1.769
			c-4-0.267-5-0.382-8-0.576c0-0.739,0-1.108,0-1.847c0,0.041,0.516,0.062,1.105,0.105c0.844,0.063,0.895-0.584,0.895-1.945
			c0-6.183,0-9.274,0-15.458c0-1.086-0.031-1.693-0.742-1.812c-0.633-0.106-1.258-0.156-1.258-0.255c0-0.738,0-1.108,0-1.847
			c3,0.515,4,0.821,8,1.528c0,0.708,0,1.062,0,1.77c-1-0.122-1.013-0.182-1.58-0.298c-0.838-0.171-1.42,0.428-1.42,1.787
			c0,4.777,0,7.164,0,11.941C195,103.873,196,101.75,199,97.837z"/>
		<path fill="#272634" d="M217,103.441c0-0.292,0-0.438,0-0.73c0-0.604-0.158-1.03-0.752-1.268
			c-0.598-0.239-1.248-0.357-1.248-0.589c0-0.582,0-0.874,0-1.456c3,1.208,4,1.861,7,3.26c0,0.517,0,0.774,0,1.291
			c-1-0.239-1.041-0.358-1.564-0.591c-0.783-0.349-1.436-0.007-1.436,1.013c0,4.571,0,6.858,0,11.429
			c0,0.804,0.598,1.271,1.27,1.404c0.592,0.117,0.73,0.177,1.73,0.297c0,0.517,0,0.774,0,1.291c-3-0.528-5-0.774-8-1.229
			c0-0.583,0-0.874,0-1.457c1,0.096,1.044,0.145,1.6,0.243c0.795,0.141,1.4-0.308,1.4-1.355c0-3.837,0-5.755,0-9.592
			c-3,2.766-4,4.381-7,7.95c0,0.287,0,0.43,0,0.717c0,0.915,0.557,1.424,1.238,1.533c0.62,0.099,0.762,0.15,1.762,0.252
			c0,0.595,0,0.892,0,1.486c-3-0.441-5-0.644-8-1.012c0-0.649,0-0.974,0-1.623c1,0.078,1.033,0.117,1.604,0.197
			c0.816,0.115,1.396-0.414,1.396-1.592c0-5.354,0-8.032,0-13.386c0-0.94-0.561-1.521-1.246-1.739
			c-0.613-0.194-0.754-0.292-1.754-0.479c0-0.648,0-0.972,0-1.621c3,0.977,5,1.514,8,2.683c0,0.594,0,0.893,0,1.487
			c-1-0.202-1.029-0.301-1.575-0.497C210.619,99.47,210,99.91,210,101.07c0,4.078,0,6.118,0,10.195
			C213,107.74,214,106.149,217,103.441z M215.732,94.605c0-0.127-0.038-0.345-0.1-0.643c-0.068-0.333-0.098-0.609-0.098-0.813
			c0-1.071,0.401-1.394,1.199-0.954c0.344,0.189,0.642,0.51,0.896,0.954c0.255,0.445,0.38,0.954,0.38,1.531
			c0,1.043-0.4,1.669-1.207,1.927c-0.807,0.258-1.819,0.127-3.044-0.409c-1.3-0.569-2.359-1.335-3.177-2.35
			s-1.229-2.135-1.229-3.351c0-0.677,0.131-1.128,0.393-1.345c0.262-0.217,0.573-0.239,0.936-0.066
			c0.37,0.176,0.668,0.484,0.896,0.916s0.341,0.908,0.341,1.431c0,0.214-0.047,0.472-0.128,0.766
			c-0.078,0.283-0.113,0.486-0.113,0.594c0,0.336,0.223,0.687,0.664,1.056c0.441,0.37,0.892,0.66,1.354,0.871
			C215.057,95.342,215.732,95.317,215.732,94.605z"/>
		<path fill="#272634" d="M129.699,166.22c0.414,0.132,0.621,0.197,1.036,0.325c0.035,0.301,0.053,0.45,0.088,0.752
			c0.166,1.488,0.443,2.302,0.834,2.428c0.341,0.109,0.653-0.407,0.937-1.565c0.211-0.884,0.316-1.329,0.528-2.222
			c0.323-1.373,0.756-2.247,1.3-2.628c0.544-0.381,1.834-0.655,1.834-0.655c0.007-0.044-2.699-1.57-3.442-2.789
			c-0.743-1.218-1.113-2.525-1.113-3.94c0-1.508,0.452-2.711,1.357-3.659c0.905-0.948,2.436-1.289,4.349-1.02
			c3.367,0.475,4.594,0.675,8.594,1.005c0,0.743,0,1.117,0,1.86c-1-0.062-1.007-0.096-1.598-0.162
			c-0.855-0.097-1.402,0.539-1.402,1.91c0,6.238,0,9.356,0,15.595c0,1.078,0.521,1.692,1.245,1.838
			c0.638,0.128,0.755,0.188,1.755,0.307c0,0.743,0,1.116,0,1.859c-4-0.61-5-0.979-8-1.835c0-0.715,0-1.071,0-1.786
			c0,0.161,0.573,0.238,1.189,0.391c0.771,0.19,0.811-0.401,0.811-1.772c0-2.563,0-3.845,0-6.407c0-0.149-0.938-0.228-1.721-0.389
			c-1.313-0.271-2.106,0.892-2.627,3.471c-0.212,1.036-0.261,1.553-0.473,2.58c-0.246,1.228-0.529,2.049-0.911,2.458
			s-0.931,0.495-1.673,0.25c-0.655-0.217-1.252-0.726-1.808-1.513C130.231,170.117,129.874,168.552,129.699,166.22z M140,162.233
			c0-2.669,0-4.003,0-6.672c0-1.386-0.124-2.126-0.844-2.227c-0.508-0.071-0.644-0.107-1.151-0.182
			c-1.575-0.231-2.528,0.02-2.983,0.768c-0.454,0.747-0.653,1.711-0.653,2.907c0,0.946,0.155,1.777,0.434,2.499
			c0.279,0.722,0.654,1.263,1.11,1.617c0.456,0.356,1.024,0.657,2.177,0.884C138.947,161.997,140,162.078,140,162.233z"/>
		<path fill="#272634" d="M155.219,164.423c0.002,0.104,4.235,2.837,4.235,6.475c0,2.086-0.514,3.75-1.539,4.965
			s-2.579,1.729-4.654,1.482c-2.086-0.249-3.582-1.162-4.496-2.644c-0.914-1.479-1.372-2.982-1.372-4.513
			c0-0.914,0.163-1.674,0.487-2.275c0.325-0.603,0.728-0.876,1.207-0.814c0.45,0.058,0.833,0.368,1.147,0.925
			c0.315,0.558,0.472,1.221,0.472,1.991c0,0.554-0.144,1.185-0.435,1.879c-0.219,0.522-0.329,0.882-0.329,1.083
			c0,0.435,0.236,0.931,0.711,1.489c0.475,0.56,1.155,0.903,2.037,1.01c2.656,0.319,3.988-1.406,3.988-5.02
			c0-1.289-0.156-2.325-0.472-3.109c-0.315-0.786-0.697-1.317-1.142-1.597c-0.445-0.28-0.896-0.457-1.846-0.544
			c-0.186-0.017-0.22-0.027-0.22-0.045c0-0.761,0-1.139,0-1.899c1,0.136,2.28-0.219,2.817-1.035
			c0.537-0.814,0.683-1.914,0.683-3.294c0-3.101-1.112-4.692-3.212-4.824c-0.713-0.045-1.463,0.142-2.185,0.558
			s-1.5,1.618-2.301,3.574c-0.349-0.266-0.529-0.4-0.877-0.667c1.159-3.761,3.066-5.569,5.744-5.42
			c1.624,0.091,2.946,0.711,3.961,1.886c1.015,1.177,1.522,2.721,1.522,4.637C159.153,161.688,155.219,164.423,155.219,164.423z"/>
		<path fill="#272634" d="M167,163.296c1-0.008,1.099-0.014,1.859-0.031c1.802-0.042,3.123,0.198,4.013,0.749
			c0.89,0.553,1.569,1.389,2.062,2.519c0.492,1.132,0.731,2.39,0.731,3.784c0,1.854-0.472,3.448-1.41,4.778
			c-0.939,1.33-2.165,2.072-4.077,2.155c-3.351,0.146-5.178,0.151-8.178,0.027c0-0.772,0-1.16,0-1.933
			c0,0.021,0.505,0.03,1.097,0.043c0.856,0.019,0.903-0.701,0.903-2.145c0-6.554,0-9.83,0-16.385c0-1.151,0.01-1.729-0.734-1.737
			c-0.658-0.008-1.266-0.012-1.266-0.025c0-0.771,0-1.159,0-1.931c3,0.062,5,0.059,8-0.012c0,0.771,0,1.159,0,1.931
			c-1,0.015-1.022,0.02-1.675,0.029c-0.855,0.013-1.325,0.728-1.325,2.153C167,159.678,167,160.885,167,163.296z M167,165.229
			c0,3.205,0,4.807,0,8.011c0,1.443,0.367,2.161,1.193,2.141c0.736-0.019,1.085-0.029,1.821-0.061
			c1.971-0.083,2.944-1.813,2.944-5.11c0-1.385-0.164-2.463-0.48-3.24c-0.317-0.777-0.741-1.276-1.263-1.493
			c-0.522-0.217-1.255-0.306-2.281-0.28C168.144,165.215,168,165.22,167,165.229z M176,154.865c0-0.766,0-1.15,0-1.915
			c3-0.157,4-0.267,8-0.549c0,0.748,0,1.124,0,1.872c-1,0.055-1.004,0.079-1.573,0.129c-0.85,0.075-1.427,0.808-1.427,2.2
			c0,6.413,0,9.617,0,16.03c0,1.124,0.513,1.635,1.231,1.524c0.647-0.1,0.769-0.15,1.769-0.26c0,0.748,0,1.124,0,1.872
			c-4,0.557-5,0.774-8,1.086c0-0.766,0-1.149,0-1.915c0-0.054,0.504-0.083,1.082-0.145c0.852-0.092,0.918-0.854,0.918-2.273
			c0-6.448,0-9.673,0-16.121c0-1.133-0.01-1.674-0.752-1.628C176.605,154.813,176,154.831,176,154.865z"/>
		<path fill="#272634" d="M193,171.899c0,0.716,0,1.074,0,1.79c-3,0.852-5,1.215-8,1.819c0-0.744,0-1.119,0-1.863
			c1-0.114,1.061-0.175,1.686-0.299c0.797-0.157,1.314-0.794,1.314-1.906c0-6.39,0-9.585,0-15.975c0-1.096-0.523-1.601-1.246-1.52
			c-0.635,0.071-0.754,0.107-1.754,0.174c0-0.743,0-1.116,0-1.859c3-0.304,4.739-0.487,7.853-0.914c0,0.715,0.011,1.075,0.011,1.79
			c-0.555,0.082-0.931,0.121-1.488,0.199c-0.851,0.119-1.375,0.843-1.375,2.183c0,2.633,0,3.95,0,6.583
			c1-0.121,1.121-0.183,1.797-0.312c1.018-0.194,1.806-0.675,2.264-1.422c0.459-0.747,0.83-2.093,1.066-4.032
			c0.195-1.602,0.391-2.728,0.558-3.371c0.168-0.645,0.48-1.242,0.927-1.794c0.445-0.552,0.971-0.874,1.567-0.971
			c0.812-0.132,1.426,0.188,1.845,0.95c0.419,0.763,0.629,1.588,0.629,2.49c0,0.708-0.134,1.336-0.406,1.886
			c-0.273,0.55-0.664,0.884-1.171,0.994c-0.479,0.104-0.836-0.039-1.076-0.428c-0.239-0.389-0.361-0.883-0.361-1.483
			c0-0.507,0.076-1.006,0.234-1.477c0.143-0.425,0.221-0.687,0.221-0.778c0-0.215-0.102-0.302-0.307-0.266
			c-0.353,0.062-0.658,0.34-0.913,0.841s-0.465,1.468-0.632,2.898c-0.254,2.178-0.541,3.625-0.86,4.326s-1.364,2.092-1.364,2.092
			c0.071,0.155,2.979,0.994,3.43,3.018c0.258,1.143,0.389,1.711,0.646,2.841c0.283,1.237,0.601,1.792,0.951,1.68
			c0.459-0.147,0.773-1.259,0.938-3.321c0.415-0.127,0.622-0.191,1.036-0.322c-0.185,2.338-0.528,3.914-1.034,4.723
			c-0.506,0.808-1.129,1.344-1.871,1.588c-1.19,0.391-1.985-0.457-2.378-2.535c-0.263-1.376-0.394-2.066-0.657-3.457
			c-0.433-2.385-1.506-3.419-3.016-3.113c-0.781,0.158-1.063,0.232-2.063,0.379c0,2.682,0,4.021,0,6.703
			c0,0.792,0.184,1.327,0.342,1.604c0.158,0.278,0.553,0.364,0.958,0.266C191.935,172.142,192,172.063,193,171.899z"/>
	</g>
</g>
</svg>
