<svg xmlns="http://www.w3.org/2000/svg" width="700" height="200"><path fill="#EFF4F4" d="M167.3 158.57c0 8.7-3.37 13.04-10.1 13.04h-34.37c-6.54 0-9.8-4.34-9.8-13.03V42.1c0-8.75 3.26-13.12 9.8-13.12h34.38c6.73 0 10.1 4.38 10.1 13.12v33.36h-16.43V47.3h-21.35v106h21.35v-30h16.42v35.27zM236.14 171.6H219.8l-3.32-27.06h-20.65l-3.3 27.07h-16.3v-.36L197.6 28.8h17.33l21.2 142.8zm-22-45.38l-8.02-64.34-8.1 64.34h16.13z"/><path fill="#04A39F" d="M300.83 29.8l-14.6 59.6c-1.77 5.9-4.2 15.83-7.25 29.8v52.4h-16.56v-52.4c-.75-4.74-1.83-9.75-3.24-15.03-2.5-9.06-3.83-13.98-4-14.77l-14.53-59.6c-.05-.06-.05-.33 0-.82h16.98l13.18 61.97 13.12-61.97h16.9c0 .43 0 .7 0 .82z"/><path fill="#EFF4F4" d="M394.48 171.6h-16.63v-63.97H355.5v63.97h-16.48V28.98h16.5v58.78h22.33V28.98h16.63V171.6zM453.33 171.6H407.6V28.98h45.3v18.87h-28.82V89.5h24.8V108h-24.8v44.74h29.25v18.86zM509.63 47.85H481.1v42.2h24.37v18.5H481.1v63.06h-16.5V29h45.03v18.87zM562.34 171.6H519V28.98h16.5v123.58h26.84v19.04zM617.87 171.6h-45.73V28.98h45.3v18.87h-28.8V89.5h24.8V108h-24.8v44.74h29.23v18.86zM72.65 171.6h-17.2l-18.18-66.25V92.5h16.2V47.3H32.7v124.3H16.2V29h43.77c6.62 0 9.93 4.38 9.93 13.12v51.86c0 6-1.57 9.9-4.72 11.66-1.7.92-5.26 1.37-10.7 1.37l18.17 64.6zM99.5 171.6H83V28.98h16.5V171.6z"/><path fill="#04A39F" d="M684.6 29.8l-14.58 59.6c-1.8 5.9-4.2 15.83-7.26 29.8v52.4H646.2v-52.4c-.75-4.74-1.83-9.75-3.24-15.03-2.5-9.06-3.83-13.98-4.02-14.77l-14.52-59.6c-.04-.06-.04-.33 0-.82h17l13.16 61.97 13.1-61.97h16.93c0 .43 0 .7 0 .82z"/></svg>